<svg width="620" height="427" viewBox="0 0 620 427" fill="none" xmlns="http://www.w3.org/2000/svg">
<path opacity="0.1" d="M191.437 21.5728C212.471 2.64283 245.493 -1.21179 275.548 0.294674C369.951 5.02852 455.167 51.0052 528.879 103.013C555.564 121.841 581.835 142.149 599.173 168.059C634.438 220.839 623.974 293.959 574.945 337.438C558.263 352.234 538.039 363.573 517.278 373.63C480.366 391.504 440.545 405.851 398.642 409.936C368.765 412.847 338.544 410.472 308.817 406.419C225.832 395.064 144.377 369.963 76.1013 327C46.1433 308.161 17.9185 284.738 5.57684 254.244C-6.76481 223.75 1.13385 185.145 31.709 167.105C44.3565 159.642 59.4723 156.276 74.2769 153.107C96.068 148.454 118.202 143.859 137.869 134.392C158.179 124.613 182.223 105.699 178.204 84.051C173.89 60.8428 170.429 40.4439 191.437 21.5728Z" fill="white"/>
<path d="M137.745 240.075C137.745 240.075 143.309 236.092 149.067 238.553C149.067 238.553 147.457 241.973 140.283 241.93L137.745 240.075Z" fill="#6C63FF"/>
<path opacity="0.1" d="M383.167 375.812L329.341 396.619L250.666 427C247.698 421.494 243.32 413.962 237.9 405.02C219.27 374.167 188.437 326.179 160.995 284.009C130.066 236.494 103.451 196.371 103.451 196.371L122.72 190.79L280.114 145.184L383.167 375.812Z" fill="black"/>
<path d="M384.24 372.059L330.414 392.866L251.739 423.247C248.771 417.741 244.393 410.209 238.973 401.267C220.343 370.414 189.51 322.426 162.069 280.256C131.139 232.741 104.524 192.618 104.524 192.618L123.793 187.037L281.187 141.431L384.24 372.059Z" fill="white"/>
<path opacity="0.1" d="M384.24 372.06L330.414 392.866C300.351 399.122 269.674 401.941 238.973 401.267C220.343 370.414 189.51 322.427 162.069 280.256L123.793 187.037L281.187 141.431L384.24 372.06Z" fill="black"/>
<path d="M424.285 359.118C424.285 359.118 340.663 408.536 215.819 397.385L116.281 154.962L163.979 146.776L328.863 118.485L422.418 354.432L424.285 359.118Z" fill="#DFEAFF"/>
<path opacity="0.1" d="M422.419 354.432C402.726 355.397 379.953 355.306 357.029 352.577C332.228 349.672 307.309 343.657 285.898 332.645C268.019 323.44 252.732 313.441 239.397 301.438C204.728 270.279 183.27 225.707 164 146.776L328.885 118.485L422.419 354.432Z" fill="black"/>
<path d="M483.757 340.879C483.757 340.879 422.092 352.953 359.385 345.517C334.584 342.595 309.638 336.596 288.255 325.584C270.375 316.379 255.088 306.381 241.753 294.377C198.826 255.777 176.176 196.687 152.813 77.3013C152.813 77.3013 255.302 102.011 356.563 47.885C356.563 47.885 390.717 260.865 483.757 340.879Z" fill="white"/>
<path opacity="0.1" d="M359.385 345.517C334.584 342.595 309.637 336.596 288.254 325.584C270.375 316.379 255.087 306.381 241.753 294.377C278.29 291.413 283.543 271.453 283.543 271.453C310.63 314.406 359.385 345.517 359.385 345.517Z" fill="black"/>
<path opacity="0.3" d="M205.812 121.134C205.812 121.134 260.866 127.411 312.396 98.4829L315.926 109.811C315.926 109.811 266.63 134.37 205.812 134.37V121.134Z" fill="#6C63FF"/>
<path opacity="0.3" d="M205.812 177.045C205.812 177.045 260.545 172.632 321.475 143.211L323.535 147.918C323.535 147.918 301.111 176.112 205.812 183.478V177.045Z" fill="black"/>
<path opacity="0.3" d="M212.299 198.853C212.299 198.853 267.032 194.441 327.962 165.025L330.023 169.732C330.023 169.732 307.604 197.953 212.299 205.324V198.853Z" fill="black"/>
<path opacity="0.3" d="M218.234 222.362C218.234 222.362 272.967 217.95 333.897 188.533L335.958 193.24C335.958 193.24 313.507 221.445 218.234 228.833V222.362Z" fill="black"/>
<path opacity="0.3" d="M225.279 242.509C225.279 242.509 280.012 238.096 340.942 208.68L343.003 213.387C343.003 213.387 320.584 241.597 225.279 248.985V242.509Z" fill="black"/>
<path opacity="0.1" d="M231.772 264.339C231.772 264.339 286.505 259.927 347.435 230.511L349.496 235.218C349.496 235.218 327.071 263.428 231.772 270.81V264.339Z" fill="black"/>
<path opacity="0.3" d="M345.831 128.53L330.516 133.739L335.729 149.04L351.045 143.831L345.831 128.53Z" fill="#6C63FF"/>
<path opacity="0.3" d="M354.544 151.294L339.229 156.503L344.442 171.804L359.758 166.595L354.544 151.294Z" fill="#6C63FF"/>
<path opacity="0.3" d="M368.511 195.094L353.195 200.303L358.409 215.604L373.725 210.395L368.511 195.094Z" fill="#6C63FF"/>
<path opacity="0.3" d="M376.525 218.601L361.21 223.811L366.424 239.112L381.739 233.903L376.525 218.601Z" fill="#6C63FF"/>
<path opacity="0.3" d="M361.647 174.941L346.332 180.15L351.545 195.452L366.861 190.243L361.647 174.941Z" fill="#6C63FF"/>
<path d="M521.785 241.018L521.211 240.482C522.692 240.182 524.087 240.048 524.087 240.048C524.087 240.048 519.005 221.681 510.436 215.553C506.197 212.524 502.666 207.479 500.171 203.153C495.623 195.33 490.513 187.846 484.883 180.76L483.338 178.814L482.673 177.967C483.601 176.562 484.739 175.227 484.61 173.597C484.607 173.587 484.607 173.576 484.61 173.565C484.615 173.479 484.615 173.394 484.61 173.308C484.594 173.106 484.558 172.907 484.502 172.713L484.443 172.804C483.719 170.702 480.934 169.775 478.868 168.617C474.039 165.899 471.973 159.959 470.943 154.437C470.138 150.148 469.472 145.323 466.113 142.562C463.967 140.787 461.048 140.203 458.885 138.439C456.836 136.767 455.693 134.231 454.405 131.899C452.259 128.012 449.425 124.393 445.685 122.072C441.945 119.751 437.196 118.855 433.091 120.41C431.519 121.01 430.092 121.943 428.536 122.592C424.672 124.2 420.245 123.986 416.419 125.685C411.708 127.776 408.644 132.397 405.843 136.783C404.394 139.05 402.119 142.369 400.826 145.709C400.826 145.591 400.826 145.478 400.826 145.36C400.206 146.832 399.867 148.407 399.828 150.003C399.803 150.682 399.877 151.361 400.048 152.019C400.627 154.163 402.355 155.348 404.405 156.174C404.524 156.856 404.681 157.531 404.877 158.195C405.805 161.245 407.455 164.027 409.687 166.305C411.92 168.583 414.669 170.29 417.702 171.281C417.879 171.346 418.061 171.389 418.238 171.442C418.388 171.867 418.603 172.265 418.877 172.622C420.589 174.766 424.023 174.155 426.255 172.595C426.346 172.536 426.432 172.461 426.518 172.396C426.533 172.7 426.565 173.003 426.615 173.302C426.663 173.56 426.701 173.839 426.754 174.069C428.766 184.904 433.918 190.753 433.918 190.753C433.918 190.753 434.395 191.471 435.173 192.661C434.766 198.639 437.497 204.086 440.652 208.294C437.931 209.865 432.066 212.942 428.439 212.685C428.439 212.685 415.11 214.406 413.565 213.543C413.35 213.425 413.146 213.586 412.953 213.95C409.283 211.715 397.547 205.271 396.544 213.543C395.637 221.048 406.331 222.008 411.424 222.046C411.193 224.244 411.064 226.002 411.064 226.002L432.963 224.506L444.365 222.828C443.104 224.496 441.682 225.981 440.292 226.704C440.292 226.704 429.985 235.041 428.203 235.116C427.951 235.116 427.87 235.368 427.908 235.77C423.572 235.77 410.088 236.397 413.828 243.903C417.224 250.706 426.786 245.999 431.111 243.399C432.131 245.377 433 246.926 433 246.926L450.67 234.355L454.496 231.138C455.793 231.076 457.074 230.828 458.301 230.403C458.301 230.452 458.338 230.5 458.354 230.543C458.491 230.937 458.593 231.343 458.66 231.754C459.733 237.914 456.127 252.282 456.127 252.282C456.127 252.282 448.196 272.488 452.006 275.244C455.816 277.999 452.999 289.627 452.999 289.627C453.664 290.745 454.429 291.8 455.285 292.78C455.688 293.245 456.136 293.671 456.621 294.05C456.444 294.532 456.297 295.025 456.181 295.525C455.599 298.002 455.819 300.6 456.809 302.944C459.427 309.292 457.834 318.492 457.834 318.492L452.693 353.189C450.225 352.813 447.037 352.502 445.852 353.189C444.033 354.213 444.628 359.375 448.851 361.595C447.569 362.576 446.084 363.259 444.505 363.594C440.749 364.452 438.109 364.999 436.37 365.331C436.257 365.331 427.355 363.369 425.069 364.667C422.783 365.964 423.883 373.159 430.387 374.922C436.751 376.643 460.485 379.168 467.321 378.139L467.755 378.064C473.567 376.917 468.464 369.288 467.82 368.36C467.777 368.049 467.739 367.722 467.696 367.369C467.605 366.575 467.525 365.664 467.466 364.688C473.948 365.283 480.344 365.573 483.279 365.133C483.419 365.133 483.547 365.09 483.665 365.063C488.811 364.045 484.304 357.301 483.724 356.486C483.699 356.278 483.673 356.059 483.644 355.826V355.767C483.644 355.612 483.606 355.446 483.59 355.285C483.574 355.124 483.59 355.011 483.547 354.867C483.504 354.722 483.547 354.609 483.51 354.475C483.488 354.211 483.467 353.937 483.445 353.655C483.445 353.542 483.445 353.424 483.445 353.307C483.445 353.092 483.419 352.878 483.408 352.658C483.408 352.54 483.408 352.422 483.408 352.299C483.408 351.977 483.408 351.645 483.376 351.312C483.376 351.221 483.376 351.13 483.376 351.039C483.376 350.771 483.376 350.503 483.376 350.224C483.376 350.095 483.376 349.967 483.376 349.832C483.376 349.548 483.376 349.264 483.376 348.975C483.376 348.878 483.376 348.787 483.376 348.691C483.376 348.331 483.408 347.961 483.429 347.592L483.461 347.195C483.461 346.921 483.504 346.659 483.531 346.38C483.531 346.246 483.531 346.112 483.574 345.978C483.617 345.603 483.665 345.227 483.719 344.847C483.719 344.734 483.757 344.622 483.773 344.509C483.821 344.225 483.869 343.935 483.923 343.646C483.923 343.506 483.977 343.362 484.009 343.217C484.073 342.906 484.143 342.595 484.218 342.284C484.218 342.198 484.256 342.113 484.277 342.027C484.374 341.651 484.481 341.282 484.594 340.912C484.631 340.783 484.674 340.654 484.717 340.526C484.808 340.247 484.905 339.99 485.007 339.7L485.136 339.357C485.281 338.992 485.436 338.633 485.597 338.285C485.64 338.194 485.688 338.102 485.737 338.011C485.871 337.733 486.016 337.475 486.166 337.186L486.348 336.869C486.552 336.526 486.761 336.183 486.992 335.856C492.895 327.45 494.451 311.238 494.306 307.71C494.161 304.183 495.009 296.865 496.066 295.782C496.774 295.058 500.895 289.349 503.358 285.006C503.804 284.213 504.19 283.468 504.496 282.803C506.245 282.197 507.404 281.731 507.404 281.731C506.788 279.48 506.491 277.153 506.524 274.82C506.567 270.258 507.823 264.248 513.006 259.369C520.658 252.164 521.726 245.023 521.828 242.278C521.828 242.085 521.828 241.914 521.828 241.769C521.812 241.265 521.785 241.018 521.785 241.018Z" fill="url(#paint0_linear)"/>
<path d="M501.394 285.982C499.317 289.689 496.987 293.248 494.418 296.634C493.41 297.707 492.599 304.949 492.739 308.429C492.878 311.908 491.403 327.948 485.763 336.258C480.124 344.568 483.021 358.93 483.021 358.93L474.023 362.082H463.21L455.762 359.858L453.798 354.443C453.798 354.443 456.417 354.041 462.92 352.497C464.724 352.13 466.359 351.184 467.575 349.803C468.79 348.421 469.521 346.681 469.655 344.847L474.221 312.986C474.221 312.986 475.568 304.944 473.346 299.379C472.721 297.813 472.461 296.125 472.588 294.443C472.714 292.761 473.223 291.131 474.076 289.676L474.221 289.45C474.221 289.45 481.267 283.891 488.446 280.412C494.805 277.345 501.255 275.887 503.084 281.328C503.321 282.031 502.548 283.837 501.394 285.982Z" fill="#A5636D"/>
<path opacity="0.05" d="M501.394 285.982C499.317 289.689 496.987 293.248 494.418 296.634C493.41 297.707 492.599 304.949 492.739 308.429C492.878 311.908 491.403 327.948 485.763 336.258C481.792 342.118 482.055 350.974 482.544 355.697C482.753 357.676 483.01 358.914 483.01 358.914L474.012 362.066H463.21L455.762 359.858L453.798 354.443C453.798 354.443 454.453 354.341 455.945 354.052C457.436 353.762 459.701 353.269 462.953 352.497C464.751 352.124 466.378 351.175 467.587 349.794C468.797 348.414 469.523 346.677 469.655 344.847L474.221 312.986C474.221 312.986 475.568 304.944 473.346 299.379C472.721 297.813 472.461 296.125 472.588 294.443C472.714 292.761 473.223 291.131 474.076 289.676L474.221 289.45C474.221 289.45 481.267 283.891 488.446 280.412C494.805 277.345 501.255 275.887 503.084 281.328C503.321 282.031 502.548 283.837 501.394 285.982Z" fill="black"/>
<path opacity="0.1" d="M483.022 358.936L474.023 362.088H463.21L455.762 359.858L453.798 354.443C453.798 354.443 454.453 354.341 455.945 354.052C455.839 355.036 456.098 356.024 456.673 356.83C457.247 357.636 458.097 358.204 459.062 358.426L463.291 358.571C463.887 358.571 464.488 358.603 465.078 358.603C471.026 358.607 476.933 357.627 482.56 355.703C482.775 357.681 483.022 358.936 483.022 358.936Z" fill="black"/>
<path d="M463.286 359.482L459.053 359.338C459.053 359.338 455.103 358.501 456.069 354.025C456.069 354.025 448.449 352.299 446.501 353.441C444.554 354.582 445.493 360.882 450.998 362.426C456.364 363.932 476.465 366.146 482.245 365.24L482.615 365.176C487.852 364.104 482.615 356.598 482.615 356.598C476.401 358.723 469.851 359.701 463.286 359.482Z" fill="#BEBED0"/>
<path d="M489.358 287.215C489.074 287.783 488.768 288.373 488.419 288.989C485.763 293.814 481.503 299.889 480.757 300.677C479.619 301.888 478.712 310.059 478.857 314.004C479.002 317.95 477.349 336.028 470.985 345.41C467.728 350.235 466.993 356.802 467.047 362.088C467.063 363.879 467.168 365.668 467.363 367.449C467.599 369.631 467.9 370.993 467.9 370.993L457.748 374.547H445.529L437.121 372.049L434.921 365.916C434.921 365.916 435.656 365.798 437.309 365.471C438.961 365.144 441.537 364.597 445.218 363.728C447.249 363.309 449.088 362.239 450.456 360.682C451.824 359.124 452.647 357.164 452.8 355.097L457.946 319.14C457.946 319.14 459.465 310.053 456.964 303.781C456.02 301.453 455.811 298.892 456.363 296.441C456.662 295.065 457.208 293.754 457.973 292.571C457.973 292.571 459.937 291.027 462.899 288.984C464.208 288.083 465.727 287.086 467.358 286.078C474.527 281.645 483.955 277.12 488.473 280.417C489.469 281.168 490.199 282.218 490.555 283.414C490.737 284.036 490.228 285.446 489.358 287.215Z" fill="#A5636D"/>
<path opacity="0.1" d="M467.874 370.998L457.721 374.552H445.53L437.121 372.054L434.921 365.921C434.921 365.921 435.656 365.803 437.309 365.476C437.203 366.203 437.278 366.944 437.527 367.635C437.776 368.326 438.191 368.945 438.736 369.438C439.582 370.156 440.652 370.558 441.763 370.574L445.61 370.698C446.281 370.698 446.957 370.735 447.628 370.735C454.342 370.734 461.011 369.625 467.364 367.454C467.6 369.636 467.874 370.998 467.874 370.998Z" fill="black"/>
<path d="M445.605 371.609L441.763 371.481C440.652 371.462 439.581 371.06 438.731 370.344C437.755 369.475 436.912 367.974 437.459 365.449C437.459 365.449 428.874 363.503 426.658 364.79C424.442 366.077 425.526 373.191 431.734 374.933C437.814 376.633 460.479 379.131 467.004 378.112L467.417 378.037C473.32 376.826 467.417 368.344 467.417 368.344C460.406 370.75 453.014 371.857 445.605 371.609Z" fill="#BEBED0"/>
<path opacity="0.1" d="M501.396 285.982C497.72 287.263 492.322 288.963 489.359 289.032C489.053 289.044 488.746 289.03 488.442 288.989C486.371 288.705 479.969 289.161 474.098 289.686C471.743 289.895 469.478 290.115 467.605 290.308C464.815 290.598 462.894 290.807 462.894 290.807V288.989C464.203 288.089 465.722 287.092 467.353 286.084C474.522 281.65 483.95 277.125 488.469 280.422C494.827 277.356 501.277 275.898 503.107 281.339C503.322 282.031 502.549 283.837 501.396 285.982Z" fill="black"/>
<path d="M519.032 243.699C518.93 246.417 517.911 253.472 510.602 260.602C501.287 269.69 505.237 282.738 505.237 282.738C505.237 282.738 494.129 287.097 489.337 287.215C489.031 287.227 488.724 287.212 488.42 287.172C485.544 286.77 474.125 287.826 467.562 288.491C464.772 288.78 462.851 288.989 462.851 288.989V250.39L514.326 237.904L518.989 242.541C519.03 242.926 519.044 243.312 519.032 243.699Z" fill="#5C5C8E"/>
<g opacity="0.1">
<path opacity="0.1" d="M463.72 288.512L462.873 288.603V289.011C462.873 289.011 464.794 288.802 467.584 288.512C472.295 288.035 479.491 287.365 484.251 287.167C480.956 286.866 470.074 287.869 463.72 288.512Z" fill="black"/>
<path opacity="0.1" d="M519.012 242.562L514.349 237.92L511.242 238.697L515.149 242.584C515.175 242.971 515.175 243.36 515.149 243.747C515.047 246.46 514.027 253.52 506.719 260.651C497.403 269.732 501.353 282.787 501.353 282.787C501.353 282.787 492.161 286.389 486.896 287.134C487.398 287.133 487.9 287.16 488.399 287.215C488.703 287.257 489.01 287.273 489.317 287.263C494.108 287.145 505.216 282.787 505.216 282.787C505.216 282.787 501.245 269.732 510.582 260.651C517.891 253.52 518.91 246.46 519.012 243.747C519.04 243.353 519.04 242.957 519.012 242.562Z" fill="black"/>
</g>
<path d="M416.168 216.432C416.168 216.432 400.606 205.646 399.463 215.36C398.32 225.074 416.168 223.686 416.168 223.686V216.432Z" fill="#A5636D"/>
<path d="M442.998 209.281C442.998 209.281 434.578 214.846 429.92 214.502C429.92 214.502 417.192 216.207 415.711 215.355C414.23 214.502 413.329 227.685 413.329 227.685L434.256 226.211L447.671 224.163C447.671 224.163 454.379 220.078 454.379 216.556C454.379 213.034 442.998 209.281 442.998 209.281Z" fill="#F7CDDD"/>
<path opacity="0.05" d="M442.998 209.281C442.998 209.281 434.578 214.846 429.92 214.502C429.92 214.502 417.192 216.207 415.711 215.355C414.23 214.502 413.329 227.685 413.329 227.685L434.256 226.211L447.671 224.163C447.671 224.163 454.379 220.078 454.379 216.556C454.379 213.034 442.998 209.281 442.998 209.281Z" fill="black"/>
<path d="M430.65 237.352C430.65 237.352 411.724 236.569 415.963 245.393C420.202 254.218 434.546 243.506 434.546 243.506L430.65 237.352Z" fill="#A5636D"/>
<path d="M449.689 218.593C449.689 218.593 434.347 207.126 436.51 193.16C438.672 179.194 449.689 203.85 449.689 203.85V218.593Z" fill="#5C5C8E"/>
<path d="M445.45 155.278C445.445 160.302 443.489 165.128 439.993 168.74C439.142 169.628 438.204 170.427 437.192 171.126C435.26 172.472 433.106 173.466 430.828 174.064C429.923 174.29 429.003 174.453 428.075 174.552C427.41 174.616 426.739 174.653 426.058 174.653C423.881 174.666 421.719 174.303 419.667 173.581C416.306 172.409 413.334 170.336 411.074 167.589C408.814 164.842 407.355 161.526 406.856 158.005C406.357 154.485 406.837 150.895 408.245 147.628C409.652 144.362 411.931 141.546 414.834 139.488C417.736 137.43 421.15 136.21 424.7 135.961C428.251 135.712 431.801 136.444 434.963 138.077C438.124 139.71 440.775 142.181 442.625 145.218C444.475 148.256 445.453 151.744 445.45 155.3V155.278Z" fill="#A5636D"/>
<path opacity="0.1" d="M519.032 243.699C517.293 244.021 515.147 244.6 515.147 245.5C515.147 247.017 490.904 255.193 490.904 255.193C490.904 255.193 491.811 257.305 489.391 260.94C486.971 264.575 467.267 285.462 467.267 285.462L467.331 286.084L467.583 288.491L468.785 299.996C468.785 299.996 461.209 297.272 458.783 297.573C458 297.674 457.174 297.17 456.363 296.447C456.662 295.07 457.208 293.759 457.973 292.576C457.973 292.576 459.937 291.032 462.899 288.989V250.39L514.374 237.904L519.037 242.541C519.062 242.927 519.06 243.313 519.032 243.699Z" fill="black"/>
<path d="M521.211 241.565C521.211 241.565 515.147 242.166 515.147 243.683C515.147 245.2 490.904 253.376 490.904 253.376C490.904 253.376 491.811 255.488 489.391 259.123C486.971 262.757 467.267 283.65 467.267 283.65L468.785 298.178C468.785 298.178 461.209 295.455 458.783 295.755C457.71 295.889 456.503 294.892 455.51 293.729C454.69 292.758 453.959 291.716 453.326 290.614C453.326 290.614 456.057 279.103 452.419 276.38C448.781 273.657 456.358 253.676 456.358 253.676C456.358 253.676 459.781 239.469 458.773 233.373C458.71 232.966 458.613 232.564 458.483 232.172C458.483 232.13 458.456 232.081 458.44 232.038C456.294 226.216 433.027 177.355 433.027 177.355C433.041 175.969 433.138 174.586 433.317 173.211C433.365 172.831 433.429 172.434 433.499 172.032C433.617 171.309 433.775 170.593 433.971 169.887C434.094 169.435 434.241 168.989 434.411 168.552C435.13 166.708 436.23 165.287 437.872 165.255C437.872 165.255 439.691 163.245 443.957 162.698C447.08 162.291 451.539 162.698 457.576 165.255C471.812 171.303 475.149 171.614 475.149 171.614L482.302 180.995L483.773 182.92C489.162 189.943 494.041 197.342 498.373 205.061C500.756 209.35 504.131 214.331 508.177 217.328C516.36 223.402 521.211 241.565 521.211 241.565Z" fill="#F7CDDD"/>
<path opacity="0.1" d="M468.099 206.557C468.099 206.557 488.329 211.554 496.169 224.152L468.099 206.557Z" fill="black"/>
<path opacity="0.1" d="M474.35 228.693C474.35 228.693 478.176 254.357 477.114 256.287C476.051 258.217 474.35 228.693 474.35 228.693Z" fill="black"/>
<path opacity="0.1" d="M472.982 241.866C471.512 243.79 465.539 258.667 465.539 258.667L467.262 283.65L468.78 298.178C468.78 298.178 461.209 295.455 458.784 295.755C457.71 295.889 456.498 294.892 455.51 293.729C457.083 285.221 460.447 267.417 461.053 267.073C461.853 266.618 465.947 252.314 466.162 248.31C466.377 244.305 472.065 235.379 472.065 235.379C472.065 235.379 474.463 239.941 472.982 241.866Z" fill="black"/>
<path opacity="0.1" d="M467.268 217.344C466.892 218.475 466.313 225.064 466.313 225.064C465.894 230.865 461.483 232.763 458.773 233.374C458.711 232.966 458.614 232.564 458.483 232.173C456.664 227.032 433.027 177.377 433.027 177.377C433.052 174.858 433.369 172.35 433.971 169.904C439.117 168.392 447.263 170.719 447.263 170.719C449.619 170.408 457.303 185.671 457.303 185.671C457.303 185.671 462.422 197.358 462.986 198.95C463.549 200.542 462.986 203.153 463.211 204.065C463.436 204.976 465.83 205.759 466.168 207.013C466.506 208.268 466.286 210.766 466.511 211.211C466.736 211.656 467.649 216.207 467.268 217.344Z" fill="black"/>
<path d="M465.449 216.433C465.073 217.569 464.494 224.152 464.494 224.152C464.15 228.977 461.038 231.122 458.441 232.039C457.27 232.457 456.044 232.701 454.803 232.762L451.148 235.936L434.272 248.347C434.272 248.347 427.983 236.73 429.69 236.665C431.396 236.601 441.237 228.345 441.237 228.345C444.248 226.737 447.263 221.375 448.664 218.62C448.583 218.291 448.522 217.958 448.482 217.623C447.875 212.481 435.147 192.795 435.147 192.795C435.147 192.795 430.226 187.011 428.311 176.294C428.257 176.047 428.219 175.795 428.171 175.538C428.117 175.205 428.084 174.868 428.074 174.53C427.844 170.408 430.849 168.906 434.412 168.553C436.273 168.405 438.144 168.463 439.992 168.724C441.834 168.956 443.657 169.314 445.45 169.796C446.974 169.593 450.73 175.924 453.193 180.411C454.518 182.845 455.474 184.743 455.474 184.743C455.474 184.743 460.593 196.436 461.156 198.023C461.72 199.609 461.156 202.231 461.382 203.137C461.607 204.043 464 204.836 464.338 206.091C464.676 207.345 464.456 209.844 464.682 210.289C464.907 210.734 465.83 215.296 465.449 216.433Z" fill="#F7CDDD"/>
<path opacity="0.1" d="M485.023 190.238C481.803 193.524 476.604 193.535 472.429 191.846C468.254 190.158 464.718 187.134 460.849 184.781C458.338 183.247 455.677 181.993 453.203 180.411C452.838 180.175 452.484 179.939 452.13 179.693C449.275 177.677 446.801 175.088 443.845 173.26C441.867 171.945 439.564 171.203 437.191 171.115C436.098 171.105 435.016 171.332 434.02 171.78C433.835 171.855 433.656 171.943 433.483 172.043C432.51 172.6 431.609 173.275 430.8 174.053C429.963 174.804 429.164 175.602 428.284 176.305C428.23 176.058 428.192 175.806 428.144 175.549C428.09 175.215 428.057 174.879 428.047 174.541C427.382 174.605 426.711 174.643 426.03 174.643C423.854 174.655 421.692 174.292 419.639 173.57C419.639 173.49 419.639 173.41 419.591 173.329C418.866 169.512 417.557 165.47 414.482 163.325C412.701 162.082 409.857 161.572 407.389 160.645C406.533 157.67 406.404 154.534 407.011 151.499C407.618 148.464 408.944 145.618 410.878 143.2C412.812 140.782 415.297 138.862 418.127 137.601C420.956 136.34 424.046 135.775 427.139 135.952C430.232 136.13 433.237 137.045 435.903 138.621C438.569 140.197 440.819 142.389 442.463 145.012C444.107 147.635 445.098 150.614 445.354 153.698C445.609 156.783 445.121 159.884 443.931 162.741C447.054 162.334 451.513 162.741 457.549 165.298C471.785 171.346 475.123 171.657 475.123 171.657L482.276 181.039C481.503 182.218 480.628 183.381 480.548 184.759C480.414 187.284 482.877 189.048 485.023 190.238Z" fill="black"/>
<path d="M414.504 161.497C417.579 163.642 418.888 167.679 419.618 171.49C419.843 172.68 420.058 173.935 420.787 174.878C422.397 176.991 425.703 176.396 427.833 174.878C429.963 173.361 431.643 171.061 434.02 169.989C437.175 168.563 440.888 169.603 443.845 171.453C446.802 173.302 449.275 175.892 452.13 177.886C454.893 179.832 457.973 181.221 460.85 182.974C464.718 185.327 468.255 188.367 472.429 190.04C476.604 191.712 481.82 191.707 485.018 188.431C482.871 187.241 480.408 185.483 480.575 182.931C480.741 180.379 483.714 178.476 483.515 175.86C483.317 173.243 480.237 172.219 478.026 170.933C473.411 168.252 471.442 162.355 470.455 156.913C469.687 152.657 469.054 147.901 465.872 145.167C463.817 143.409 461.043 142.835 458.971 141.093C457.013 139.436 455.924 136.933 454.679 134.622C452.624 130.778 449.924 127.202 446.356 124.902C442.788 122.602 438.248 121.686 434.331 123.262C432.829 123.857 431.46 124.779 429.979 125.406C426.288 127.015 422.065 126.784 418.41 128.462C413.908 130.532 410.984 135.099 408.306 139.436C406.042 143.152 401.551 149.703 402.822 154.528C404.089 159.433 411.166 159.17 414.504 161.497Z" fill="#4C3E42"/>
<g opacity="0.1">
<path opacity="0.1" d="M483.51 175.565C483.494 175.366 483.459 175.168 483.408 174.975C482.592 176.256 481.578 177.5 481.482 179.001C481.461 179.348 481.49 179.697 481.568 180.036C482.474 178.594 483.639 177.237 483.51 175.565Z" fill="black"/>
<path opacity="0.1" d="M473.336 186.126C469.162 184.454 465.631 181.414 461.762 179.06C458.88 177.307 455.8 175.919 453.037 173.973C450.182 171.957 447.709 169.367 444.752 167.539C441.795 165.711 438.087 164.65 434.927 166.07C432.55 167.143 430.876 169.421 428.74 170.965C426.604 172.509 423.331 173.11 421.695 170.965C420.965 170.022 420.75 168.767 420.525 167.577C419.8 163.765 418.486 159.728 415.416 157.584C412.073 155.252 404.996 155.514 403.713 150.614C403.499 149.738 403.443 148.83 403.547 147.934C402.726 150.121 402.302 152.319 402.801 154.233C404.089 159.155 411.167 158.892 414.504 161.203C417.579 163.347 418.888 167.389 419.618 171.201C419.843 172.391 420.058 173.646 420.782 174.589C422.392 176.701 425.698 176.106 427.833 174.562C429.969 173.018 431.638 170.745 434.02 169.673C437.175 168.252 440.888 169.292 443.845 171.142C446.802 172.992 449.275 175.581 452.13 177.575C454.894 179.527 457.974 180.91 460.85 182.663C464.719 185.022 468.255 188.062 472.429 189.734C476.604 191.407 481.82 191.396 485.018 188.126C484.191 187.682 483.406 187.163 482.673 186.577C479.765 187.643 476.293 187.311 473.336 186.126Z" fill="black"/>
</g>
<path d="M378.365 222.796L421.292 206.777C421.794 206.589 422.328 206.502 422.864 206.52C423.4 206.538 423.927 206.662 424.415 206.884C424.903 207.106 425.342 207.422 425.708 207.814C426.073 208.206 426.358 208.666 426.545 209.168C426.733 209.67 426.819 210.204 426.8 210.74C426.781 211.275 426.657 211.801 426.434 212.289C426.211 212.776 425.895 213.215 425.502 213.58C425.11 213.945 424.649 214.229 424.147 214.417L381.219 230.441L372.022 229.519L378.365 222.796Z" fill="#5C5C8E"/>
<path opacity="0.1" d="M425.241 207.881C425.62 208.896 425.58 210.019 425.13 211.004C424.68 211.99 423.857 212.756 422.842 213.135L379.915 229.154L373.003 228.463L372.011 229.535L381.208 230.457L424.135 214.433C424.638 214.245 425.098 213.961 425.491 213.596C425.883 213.231 426.2 212.792 426.423 212.305C426.645 211.817 426.77 211.291 426.789 210.756C426.808 210.22 426.721 209.686 426.534 209.184C426.219 208.339 425.632 207.622 424.865 207.147C425.013 207.38 425.139 207.626 425.241 207.881Z" fill="white"/>
<path d="M378.365 222.796L381.225 230.441L373.675 229.685L372.022 229.519L374.281 227.128L378.365 222.796Z" fill="#EFC8C4"/>
<path d="M374.275 227.128C374.453 227.258 374.603 227.422 374.715 227.61C374.786 227.722 374.824 227.851 374.824 227.983C374.824 228.115 374.786 228.244 374.715 228.356C374.592 228.475 374.451 228.574 374.297 228.65C374.123 228.765 373.977 228.918 373.871 229.097C373.765 229.276 373.701 229.478 373.685 229.685L372.032 229.519L374.275 227.128Z" fill="#727A9C"/>
<path d="M340.894 139.962L333.655 136.434C333.552 136.384 333.46 136.314 333.384 136.228C333.307 136.142 333.249 136.042 333.212 135.933C333.174 135.825 333.159 135.71 333.166 135.595C333.173 135.481 333.202 135.369 333.253 135.266L334.02 133.689C334.07 133.586 334.14 133.493 334.226 133.417C334.312 133.34 334.412 133.281 334.521 133.244C334.63 133.207 334.745 133.191 334.86 133.199C334.975 133.206 335.087 133.236 335.19 133.287L340.068 135.662L345.16 125.23C345.262 125.021 345.442 124.862 345.661 124.785C345.88 124.709 346.12 124.722 346.33 124.822L347.907 125.594C348.011 125.644 348.104 125.714 348.18 125.8C348.257 125.886 348.316 125.986 348.353 126.094C348.391 126.203 348.406 126.318 348.399 126.433C348.391 126.548 348.361 126.66 348.31 126.763L342.064 139.56C342.013 139.663 341.943 139.755 341.857 139.831C341.771 139.907 341.671 139.966 341.562 140.003C341.454 140.04 341.339 140.056 341.224 140.049C341.109 140.042 340.997 140.012 340.894 139.962Z" fill="#3ACC6C"/>
<path d="M356.707 185.086L349.469 181.559C349.365 181.508 349.273 181.438 349.197 181.352C349.121 181.266 349.063 181.166 349.025 181.058C348.988 180.949 348.972 180.834 348.979 180.72C348.986 180.605 349.016 180.493 349.066 180.39L349.834 178.814C349.936 178.605 350.118 178.446 350.338 178.37C350.558 178.295 350.799 178.31 351.009 178.412L355.881 180.787L360.968 170.343C361.07 170.135 361.25 169.975 361.469 169.899C361.688 169.823 361.929 169.836 362.138 169.936L363.71 170.708C363.814 170.758 363.907 170.828 363.983 170.913C364.06 170.999 364.119 171.099 364.157 171.208C364.195 171.316 364.211 171.431 364.204 171.546C364.198 171.661 364.168 171.773 364.118 171.877L357.872 184.674C357.768 184.881 357.587 185.04 357.367 185.115C357.147 185.19 356.906 185.176 356.697 185.076L356.707 185.086Z" fill="#3ACC6C"/>
<path d="M349.608 162.843L342.37 159.315C342.161 159.214 342.001 159.034 341.925 158.815C341.849 158.596 341.862 158.356 341.962 158.147L342.735 156.571C342.784 156.467 342.854 156.374 342.94 156.298C343.026 156.221 343.127 156.163 343.235 156.125C343.344 156.088 343.459 156.072 343.574 156.08C343.689 156.087 343.801 156.117 343.904 156.168L348.782 158.543L353.875 148.095C353.925 147.992 353.995 147.899 354.081 147.823C354.167 147.747 354.267 147.689 354.376 147.652C354.485 147.614 354.6 147.599 354.714 147.606C354.829 147.613 354.941 147.642 355.044 147.693L356.622 148.459C356.83 148.563 356.989 148.744 357.064 148.964C357.139 149.184 357.125 149.424 357.024 149.633L350.773 162.441C350.723 162.544 350.652 162.636 350.566 162.712C350.48 162.788 350.38 162.847 350.271 162.884C350.163 162.921 350.048 162.937 349.933 162.93C349.818 162.923 349.706 162.893 349.603 162.843H349.608Z" fill="#3ACC6C"/>
<path d="M363.576 205.458L356.337 201.931C356.234 201.88 356.142 201.81 356.066 201.724C355.99 201.638 355.931 201.538 355.894 201.43C355.856 201.321 355.841 201.206 355.848 201.092C355.855 200.977 355.884 200.865 355.935 200.762L356.702 199.186C356.753 199.083 356.823 198.99 356.909 198.914C356.995 198.838 357.095 198.78 357.204 198.743C357.312 198.705 357.427 198.69 357.542 198.697C357.657 198.704 357.769 198.733 357.872 198.784L362.75 201.159L367.842 190.726C367.945 190.517 368.126 190.358 368.346 190.281C368.566 190.205 368.807 190.218 369.017 190.319L370.59 191.091C370.693 191.14 370.786 191.21 370.863 191.296C370.939 191.382 370.998 191.482 371.035 191.591C371.073 191.7 371.088 191.815 371.081 191.929C371.073 192.044 371.043 192.156 370.992 192.259L364.751 205.056C364.647 205.264 364.466 205.422 364.246 205.498C364.026 205.573 363.786 205.559 363.576 205.458Z" fill="#3ACC6C"/>
<defs>
<linearGradient id="paint0_linear" x1="460.313" y1="378.348" x2="460.313" y2="119.617" gradientUnits="userSpaceOnUse">
<stop stop-color="#808080" stop-opacity="0.25"/>
<stop offset="0.54" stop-color="#808080" stop-opacity="0.12"/>
<stop offset="1" stop-color="#808080" stop-opacity="0.1"/>
</linearGradient>
</defs>
</svg>
