<svg width="601" height="522" viewBox="0 0 601 522" fill="none" xmlns="http://www.w3.org/2000/svg">
<path d="M494.586 0H12.4136C5.55776 0 0 9.14234 0 20.42V435.58C0 446.858 5.55776 456 12.4136 456H494.586C501.442 456 507 446.858 507 435.58V20.42C507 9.14234 501.442 0 494.586 0Z" fill="#F2F2F2"/>
<path d="M507 20.42V32H0V20.42C0 15.0043 1.30786 9.81039 3.63586 5.9809C5.96386 2.1514 9.12131 0 12.4136 0H494.586C497.879 0 501.036 2.1514 503.364 5.9809C505.692 9.81039 507 15.0043 507 20.42Z" fill="#3F3D56"/>
<path d="M124.21 84.9702H46.79C41.6593 84.9702 37.5 89.1295 37.5 94.2602V153.68C37.5 158.811 41.6593 162.97 46.79 162.97H124.21C129.341 162.97 133.5 158.811 133.5 153.68V94.2602C133.5 89.1295 129.341 84.9702 124.21 84.9702Z" fill="#6C63FF"/>
<path d="M236.21 84.9702H158.79C153.659 84.9702 149.5 89.1295 149.5 94.2602V153.68C149.5 158.811 153.659 162.97 158.79 162.97H236.21C241.341 162.97 245.5 158.811 245.5 153.68V94.2602C245.5 89.1295 241.341 84.9702 236.21 84.9702Z" fill="white"/>
<path d="M348.21 84.9702H270.79C265.659 84.9702 261.5 89.1295 261.5 94.2602V153.68C261.5 158.811 265.659 162.97 270.79 162.97H348.21C353.341 162.97 357.5 158.811 357.5 153.68V94.2602C357.5 89.1295 353.341 84.9702 348.21 84.9702Z" fill="white"/>
<path d="M460.21 84.9702H382.79C377.659 84.9702 373.5 89.1295 373.5 94.2602V153.68C373.5 158.811 377.659 162.97 382.79 162.97H460.21C465.341 162.97 469.5 158.811 469.5 153.68V94.2602C469.5 89.1295 465.341 84.9702 460.21 84.9702Z" fill="#6C63FF"/>
<path d="M124.21 215.97H46.79C41.6593 215.97 37.5 220.129 37.5 225.26V284.68C37.5 289.811 41.6593 293.97 46.79 293.97H124.21C129.341 293.97 133.5 289.811 133.5 284.68V225.26C133.5 220.129 129.341 215.97 124.21 215.97Z" fill="white"/>
<path d="M236.21 215.97H158.79C153.659 215.97 149.5 220.129 149.5 225.26V284.68C149.5 289.811 153.659 293.97 158.79 293.97H236.21C241.341 293.97 245.5 289.811 245.5 284.68V225.26C245.5 220.129 241.341 215.97 236.21 215.97Z" fill="#6C63FF"/>
<path d="M348.21 215.97H270.79C265.659 215.97 261.5 220.129 261.5 225.26V284.68C261.5 289.811 265.659 293.97 270.79 293.97H348.21C353.341 293.97 357.5 289.811 357.5 284.68V225.26C357.5 220.129 353.341 215.97 348.21 215.97Z" fill="white"/>
<path d="M460.21 215.97H382.79C377.659 215.97 373.5 220.129 373.5 225.26V284.68C373.5 289.811 377.659 293.97 382.79 293.97H460.21C465.341 293.97 469.5 289.811 469.5 284.68V225.26C469.5 220.129 465.341 215.97 460.21 215.97Z" fill="white"/>
<path d="M124.21 346.97H46.79C41.6593 346.97 37.5 351.129 37.5 356.26V415.68C37.5 420.811 41.6593 424.97 46.79 424.97H124.21C129.341 424.97 133.5 420.811 133.5 415.68V356.26C133.5 351.129 129.341 346.97 124.21 346.97Z" fill="white"/>
<path d="M236.21 346.97H158.79C153.659 346.97 149.5 351.129 149.5 356.26V415.68C149.5 420.811 153.659 424.97 158.79 424.97H236.21C241.341 424.97 245.5 420.811 245.5 415.68V356.26C245.5 351.129 241.341 346.97 236.21 346.97Z" fill="white"/>
<path opacity="0.3" d="M348.21 346.97H270.79C265.659 346.97 261.5 351.129 261.5 356.26V415.68C261.5 420.811 265.659 424.97 270.79 424.97H348.21C353.341 424.97 357.5 420.811 357.5 415.68V356.26C357.5 351.129 353.341 346.97 348.21 346.97Z" fill="#6C63FF"/>
<path d="M460.21 346.97H382.79C377.659 346.97 373.5 351.129 373.5 356.26V415.68C373.5 420.811 377.659 424.97 382.79 424.97H460.21C465.341 424.97 469.5 420.811 469.5 415.68V356.26C469.5 351.129 465.341 346.97 460.21 346.97Z" fill="white"/>
<path d="M155.72 70.61L150.66 65.5201C150.411 65.2682 150.114 65.0682 149.787 64.9318C149.46 64.7953 149.109 64.7251 148.755 64.7251C148.401 64.7251 148.05 64.7953 147.723 64.9318C147.396 65.0682 147.099 65.2682 146.85 65.5201L115.09 97.01L101.66 83.47C101.413 83.2203 101.118 83.0221 100.794 82.8868C100.469 82.7515 100.121 82.6818 99.77 82.6818C99.4185 82.6818 99.0705 82.7515 98.7461 82.8868C98.4217 83.0221 98.1273 83.2203 97.88 83.47L92.77 88.5201C92.268 89.029 91.9866 89.7152 91.9866 90.4301C91.9866 91.1449 92.268 91.8311 92.77 92.3401L113.16 112.89C113.669 113.392 114.355 113.673 115.07 113.673C115.785 113.673 116.471 113.392 116.98 112.89L155.72 74.4301C155.973 74.1807 156.175 73.8834 156.312 73.5555C156.449 73.2275 156.52 72.8756 156.52 72.5201C156.52 72.1645 156.449 71.8126 156.312 71.4846C156.175 71.1567 155.973 70.8594 155.72 70.61Z" fill="#3ACC6C"/>
<path d="M495.72 70.61L490.66 65.5201C490.411 65.2682 490.114 65.0682 489.787 64.9318C489.46 64.7953 489.109 64.7251 488.755 64.7251C488.401 64.7251 488.05 64.7953 487.723 64.9318C487.396 65.0682 487.099 65.2682 486.85 65.5201L455.09 97.01L441.66 83.47C441.413 83.2203 441.118 83.0221 440.794 82.8868C440.469 82.7515 440.122 82.6818 439.77 82.6818C439.419 82.6818 439.07 82.7515 438.746 82.8868C438.422 83.0221 438.127 83.2203 437.88 83.47L432.77 88.5201C432.268 89.029 431.987 89.7152 431.987 90.4301C431.987 91.1449 432.268 91.8311 432.77 92.3401L453.16 112.89C453.669 113.392 454.355 113.673 455.07 113.673C455.785 113.673 456.471 113.392 456.98 112.89L495.72 74.4301C495.973 74.1807 496.175 73.8834 496.312 73.5555C496.449 73.2275 496.52 72.8756 496.52 72.5201C496.52 72.1645 496.449 71.8126 496.312 71.4846C496.175 71.1567 495.973 70.8594 495.72 70.61Z" fill="#3ACC6C"/>
<path d="M267.72 200.61L262.66 195.52C262.411 195.268 262.114 195.068 261.787 194.932C261.46 194.795 261.109 194.725 260.755 194.725C260.401 194.725 260.05 194.795 259.723 194.932C259.396 195.068 259.099 195.268 258.85 195.52L227.09 227.01L213.66 213.47C213.413 213.22 213.118 213.022 212.794 212.887C212.469 212.751 212.122 212.682 211.77 212.682C211.419 212.682 211.07 212.751 210.746 212.887C210.422 213.022 210.127 213.22 209.88 213.47L204.77 218.52C204.268 219.029 203.987 219.715 203.987 220.43C203.987 221.145 204.268 221.831 204.77 222.34L225.16 242.89C225.669 243.392 226.355 243.673 227.07 243.673C227.785 243.673 228.471 243.392 228.98 242.89L267.72 204.43C267.973 204.181 268.175 203.883 268.312 203.555C268.449 203.228 268.52 202.876 268.52 202.52C268.52 202.165 268.449 201.813 268.312 201.485C268.175 201.157 267.973 200.859 267.72 200.61Z" fill="#3ACC6C"/>
<path d="M378.72 336.61L373.66 331.52C373.411 331.268 373.114 331.068 372.787 330.932C372.46 330.795 372.109 330.725 371.755 330.725C371.401 330.725 371.05 330.795 370.723 330.932C370.396 331.068 370.099 331.268 369.85 331.52L338.09 363.01L324.66 349.47C324.413 349.22 324.118 349.022 323.794 348.887C323.469 348.751 323.122 348.682 322.77 348.682C322.419 348.682 322.07 348.751 321.746 348.887C321.422 349.022 321.127 349.22 320.88 349.47L315.77 354.47C315.268 354.979 314.987 355.665 314.987 356.38C314.987 357.095 315.268 357.781 315.77 358.29L336.16 378.84C336.669 379.342 337.355 379.623 338.07 379.623C338.785 379.623 339.471 379.342 339.98 378.84L378.72 340.38C379.216 339.878 379.495 339.201 379.495 338.495C379.495 337.789 379.216 337.112 378.72 336.61Z" fill="#3ACC6C"/>
<path d="M553.062 265H426.938C422.554 265 419 268.562 419 272.955V323.045C419 327.438 422.554 331 426.938 331H553.062C557.446 331 561 327.438 561 323.045V272.955C561 268.562 557.446 265 553.062 265Z" fill="#FF6347"/>
<path opacity="0.1" d="M550 321H431V322H550V321Z" fill="black"/>
<path opacity="0.3" d="M550 275H431V320H550V275Z" fill="black"/>
<path opacity="0.1" d="M458.5 315C467.613 315 475 307.613 475 298.5C475 289.387 467.613 282 458.5 282C449.387 282 442 289.387 442 298.5C442 307.613 449.387 315 458.5 315Z" fill="black"/>
<path opacity="0.1" d="M522.5 315C531.613 315 539 307.613 539 298.5C539 289.387 531.613 282 522.5 282C513.387 282 506 289.387 506 298.5C506 307.613 513.387 315 522.5 315Z" fill="black"/>
<path d="M503 331H478V345H503V331Z" fill="#FF6347"/>
<path d="M542 341H439V423H542V341Z" fill="#FF6347"/>
<path d="M544 440H437V450H544V440Z" fill="#FF6347"/>
<path d="M454 474.467V486.867V505.467V515.8V522H473V515.8V505.467V486.867V474.467V460H454V474.467Z" fill="#FF6347"/>
<path d="M510 460V474.467V486.867V505.467V515.8V522H528V515.8V505.467V486.867V474.467V460H510Z" fill="#FF6347"/>
<path d="M432.598 371.913L432.598 359C424.5 358 408.588 374.966 404.225 377.549C400.045 379.907 395.355 381.35 390.506 381.768C384.317 382.408 377.861 381.78 371.933 380.627C363.953 379.023 356.205 376.54 348.851 373.23L345.133 391.79C355.772 395.541 363.118 397.795 371.457 398.958C380.855 400.276 388.876 400.163 395.7 399.109C409.343 397.002 418.22 391.137 423.843 385.392C430.518 378.567 432.598 371.913 432.598 371.913Z" fill="#FF6347"/>
<path opacity="0.3" d="M473 460H454V475H473V460Z" fill="black"/>
<path opacity="0.3" d="M473 487H454V506H473V487Z" fill="black"/>
<path opacity="0.3" d="M473 516H454V522H473V516Z" fill="black"/>
<path opacity="0.3" d="M528 460H510V475H528V460Z" fill="black"/>
<path opacity="0.3" d="M528 487H510V506H528V487Z" fill="black"/>
<path opacity="0.3" d="M528 516H510V522H528V516Z" fill="black"/>
<path opacity="0.3" d="M390.86 381.937C384.741 382.595 378.364 381.988 372.51 380.855L371.976 399.156C381.258 400.444 389.185 400.306 395.932 399.234L390.86 381.937Z" fill="black"/>
<path opacity="0.3" d="M432.687 358.957C426.175 358.398 415.557 368.094 412.255 370.955L420.094 388.953C425.594 383.953 429.594 379.953 432.594 371.953L432.687 358.957Z" fill="black"/>
<path d="M556 360V378.972C560.996 379.857 565.65 382.133 569.445 385.546C572.963 388.851 575.7 392.921 577.449 397.45C579.789 403.2 580.926 409.585 581.39 415.622C581.963 423.764 581.587 431.947 580.271 440H600.494C601.353 428.661 601.079 418.932 599.965 410.579C598.716 401.161 596.404 393.495 593.475 387.26C587.616 374.795 579.282 368.033 571.961 364.36C563.266 360 556 360 556 360Z" fill="#FF6347"/>
<path opacity="0.3" d="M556 360V378.567C561.008 379.433 565.674 381.66 569.478 385L572 364.267C563.283 360 556 360 556 360Z" fill="black"/>
<path opacity="0.3" d="M578 397.06C580.286 402.736 581.398 409.04 581.851 415L600 410.021C598.78 400.723 596.521 393.155 593.659 387L578 397.06Z" fill="black"/>
<path opacity="0.1" d="M503 331H478V332H503V331Z" fill="black"/>
<path opacity="0.1" d="M544 356V390C542.713 388.689 541.999 386.968 542 385.181V360.815C541.999 359.029 542.713 357.309 544 356V356Z" fill="black"/>
<path opacity="0.1" d="M439 358.298V383.702C438.872 385.308 438.166 386.824 437 388V354C438.166 355.176 438.872 356.692 439 358.298V358.298Z" fill="black"/>
<path opacity="0.1" d="M537 423H444V425H537V423Z" fill="black"/>
<path opacity="0.1" d="M487 450H442V451H487V450Z" fill="black"/>
<path opacity="0.1" d="M537 450H491V451H537V450Z" fill="black"/>
<path d="M454 204H447V265H454V204Z" fill="#FF6347"/>
<path d="M535 204H528V265H535V204Z" fill="#FF6347"/>
<path opacity="0.1" d="M450 213C454.418 213 458 209.418 458 205C458 200.582 454.418 197 450 197C445.582 197 442 200.582 442 205C442 209.418 445.582 213 450 213Z" fill="black"/>
<path d="M450 212C454.418 212 458 208.418 458 204C458 199.582 454.418 196 450 196C445.582 196 442 199.582 442 204C442 208.418 445.582 212 450 212Z" fill="#FF6347"/>
<path opacity="0.1" d="M532 213C536.418 213 540 209.418 540 205C540 200.582 536.418 197 532 197C527.582 197 524 200.582 524 205C524 209.418 527.582 213 532 213Z" fill="black"/>
<path d="M532 212C536.418 212 540 208.418 540 204C540 199.582 536.418 196 532 196C527.582 196 524 199.582 524 204C524 208.418 527.582 212 532 212Z" fill="#FF6347"/>
</svg>
